<svg width="1200" height="630" viewBox="0 0 1200 630" fill="none" xmlns="http://www.w3.org/2000/svg">
  <defs>
    <linearGradient id="bg" x1="120" y1="68" x2="1062" y2="566" gradientUnits="userSpaceOnUse">
      <stop stop-color="#0A0C13"/>
      <stop offset="1" stop-color="#141B29"/>
    </linearGradient>
    <linearGradient id="stroke" x1="208" y1="136" x2="932" y2="510" gradientUnits="userSpaceOnUse">
      <stop stop-color="#9CF2D6" stop-opacity="0.9"/>
      <stop offset="1" stop-color="#7E89FF" stop-opacity="0.9"/>
    </linearGradient>
    <linearGradient id="textAccent" x1="0" y1="0" x2="1" y2="1">
      <stop stop-color="#9CF2D6"/>
      <stop offset="1" stop-color="#7E89FF"/>
    </linearGradient>
    <filter id="blurA" x="0" y="-79" width="505" height="505" filterUnits="userSpaceOnUse" color-interpolation-filters="sRGB">
      <feGaussianBlur stdDeviation="60"/>
    </filter>
    <filter id="blurB" x="777" y="302" width="423" height="423" filterUnits="userSpaceOnUse" color-interpolation-filters="sRGB">
      <feGaussianBlur stdDeviation="52"/>
    </filter>
  </defs>

  <rect width="1200" height="630" rx="40" fill="#06070A"/>
  <g opacity="0.9">
    <g filter="url(#blurA)">
      <circle cx="192" cy="173" r="72" fill="#7E89FF" fill-opacity="0.42"/>
    </g>
    <g filter="url(#blurB)">
      <circle cx="988" cy="513" r="58" fill="#9CF2D6" fill-opacity="0.38"/>
    </g>
  </g>

  <rect x="42" y="42" width="1116" height="546" rx="34" fill="url(#bg)"/>
  <rect x="42.8" y="42.8" width="1114.4" height="544.4" rx="33.2" stroke="url(#stroke)" stroke-opacity="0.18" stroke-width="1.6"/>

  <rect x="78" y="78" width="184" height="44" rx="22" fill="#121826"/>
  <rect x="79" y="79" width="182" height="42" rx="21" stroke="#9CF2D6" stroke-opacity="0.2" stroke-width="2"/>
  <text x="170" y="106" fill="#9CF2D6" font-size="18" font-family="Arial, Helvetica, sans-serif" text-anchor="middle" letter-spacing="2">KANJITERU</text>

  <text x="90" y="220" fill="#F7F7FB" font-size="78" font-weight="800" font-family="Arial, Helvetica, sans-serif">Пишу скрипты</text>
  <text x="90" y="304" fill="url(#textAccent)" font-size="78" font-weight="800" font-family="Arial, Helvetica, sans-serif">за деньги</text>

  <text x="92" y="372" fill="#A7B0C2" font-size="28" font-family="Arial, Helvetica, sans-serif">Telegram: @kanjiteru</text>
  <text x="92" y="414" fill="#A7B0C2" font-size="28" font-family="Arial, Helvetica, sans-serif">Discord: rq37</text>
  <text x="92" y="468" fill="#F7F7FB" font-size="30" font-family="Arial, Helvetica, sans-serif">premium operator • high signal / low noise</text>

  <rect x="818" y="116" width="268" height="348" rx="30" fill="#10141C"/>
  <rect x="819" y="117" width="266" height="346" rx="29" stroke="#FFFFFF" stroke-opacity="0.08" stroke-width="2"/>

  <rect x="856" y="154" width="90" height="90" rx="26" fill="url(#textAccent)"/>
  <path d="M882 171H898L919 205V171H932V248H916L895 214V248H882V171Z" fill="#081019"/>

  <text x="856" y="292" fill="#9CF2D6" font-size="18" font-family="Arial, Helvetica, sans-serif" letter-spacing="2">LIVE SITE</text>
  <text x="856" y="330" fill="#F7F7FB" font-size="32" font-weight="700" font-family="Arial, Helvetica, sans-serif">kanjiteru</text>
  <text x="856" y="365" fill="#A7B0C2" font-size="22" font-family="Arial, Helvetica, sans-serif">kanjiterucode.pages.dev</text>

  <rect x="856" y="404" width="170" height="40" rx="20" fill="#171D29"/>
  <text x="941" y="430" fill="#FFD278" font-size="16" font-family="Arial, Helvetica, sans-serif" text-anchor="middle" letter-spacing="1.4">TELEGRAM / DISCORD</text>

  <circle cx="1090" cy="88" r="4" fill="#9CF2D6" fill-opacity="0.8"/>
  <circle cx="1110" cy="88" r="4" fill="#7E89FF" fill-opacity="0.8"/>
  <circle cx="1130" cy="88" r="4" fill="#FFD278" fill-opacity="0.8"/>
</svg>
